<?xml version="1.0" encoding="utf-8"?>
<!-- Generator: Adobe Illustrator 22.1.0, SVG Export Plug-In . SVG Version: 6.00 Build 0)  -->
<svg version="1.1" id="Слой_1" xmlns="http://www.w3.org/2000/svg" xmlns:xlink="http://www.w3.org/1999/xlink" x="0px" y="0px"
	 viewBox="0 0 210 400" style="enable-background:new 0 0 210 400;" xml:space="preserve">
<style type="text/css">
	.st0{fill:#28C8C6;}
</style>
<g>
	<g>
		<path class="st0" d="M5.8,38.4C25.2,57.7,44.6,77,64,96.2c30.6,30.4,61.2,60.9,91.8,91.3c7.1,7.1,14.2,14.1,21.3,21.2
			c7.1,7,19.9,7.6,26.9,0c6.9-7.6,7.5-19.4,0-26.9c-19.4-19.3-38.7-38.5-58.1-57.8C115.2,93.6,84.6,63.2,54,32.7
			c-7.1-7.1-14.2-14.1-21.3-21.2c-7.1-7-19.9-7.6-26.9,0C-1.1,19.1-1.7,30.9,5.8,38.4L5.8,38.4z"/>
	</g>
</g>
<g>
	<g>
		<path class="st0" d="M33.2,390.4c19.3-19.4,38.5-38.7,57.8-58.1c30.4-30.6,60.9-61.2,91.3-91.8c7.1-7.1,14.1-14.2,21.2-21.3
			c7-7.1,7.6-19.9,0-26.9c-7.6-6.9-19.4-7.5-26.9,0c-19.3,19.4-38.5,38.7-57.8,58.1c-30.4,30.6-60.9,61.2-91.3,91.8
			c-7.1,7.1-14.1,14.2-21.2,21.3c-7,7.1-7.6,19.9,0,26.9C13.9,397.4,25.7,398,33.2,390.4L33.2,390.4z"/>
	</g>
</g>
<g>
	<g>
		<path class="st0" d="M194.8,196.1c-0.9,3.1-2,8.5,1.4,10.4c1.5,0.8,3,0.5,4.2-0.5c1.5-1.3,1.5-3.9,1.7-5.8
			c0.2-2.5-0.7-4.6-2.1-6.6c-1,1.8-2,3.5-3,5.3c-1.3-1.7-1.9-2.1-1.7-0.9c0,0.4,0.1,0.9,0.1,1.3c0,0.7,0.1,1.4,0,2.2
			c-0.2,1.4-0.6,2.4-1.7,3.3c1.9,1.1,3.9,2.3,5.8,3.4c0.2-1.2,1.1-2.4,1.5-3.6c0.4-1.4,0.7-2.9,0.7-4.4c0-2.8-0.9-5.6-2.4-7.9
			c-2.5-3.7-8.5-0.2-6,3.5c1,1.6,1.6,3.2,1.4,5.1c-0.2,2-1.5,3.5-1.9,5.4c-0.7,3.6,3.1,5.6,5.8,3.4c3-2.4,3.9-6.3,3.8-10
			c-0.1-3.3-0.9-8.4-5.4-7.8c-2.3,0.3-4.7,2.8-3,5.3c0.6,0.9,1.1,1.5,1.2,2.6c0,0.5-0.1,1.1-0.2,1.6c-0.2,1.2-0.1,1.1,0.5-0.4
			c1.4-0.2,2.8-0.4,4.2-0.5c-0.1-0.1-0.2-0.1-0.3-0.2c0.5,0.7,1.1,1.4,1.6,2.1c-0.4-1.3,0.1-3.1,0.5-4.4
			C202.8,193.6,196,191.8,194.8,196.1L194.8,196.1z"/>
	</g>
</g>
</svg>
