<?xml version="1.0" encoding="utf-8"?>
<!-- Generator: Adobe Illustrator 22.1.0, SVG Export Plug-In . SVG Version: 6.00 Build 0)  -->
<svg version="1.1" id="Слой_1" xmlns="http://www.w3.org/2000/svg" xmlns:xlink="http://www.w3.org/1999/xlink" x="0px" y="0px"
	 viewBox="0 0 400 400" style="enable-background:new 0 0 400 400;" xml:space="preserve">
<style type="text/css">
	.st0{fill:none;stroke:#28C8C6;stroke-width:20;stroke-miterlimit:10;}
	.st1{fill:#28C8C6;}
</style>
<g id="XMLID_1_">
	<circle class="st0" cx="200.5" cy="199.5" r="188"/>
</g>
<path class="st1" d="M191,217.3c-6.7-7.2-14.8-13.6-22.4-19.6c-5.9-4.7-11.9-9.4-18-13.9L105.6,287h0.4l86.2-68
	C191.7,218.5,191.3,217.9,191,217.3z"/>
<path class="st1" d="M200.5,69l-45.9,105.4c6.6,4.9,13.1,9.9,19.6,15c8.2,6.4,16.9,13.3,24.1,21c0.2,0.2,0.4,0.3,0.5,0.5
	c0.9,0.4,1.6,1.1,2,1.9L295,287h0.3L200.5,69z"/>
</svg>
