<?xml version="1.0" encoding="utf-8"?>
<!-- Generator: Adobe Illustrator 22.1.0, SVG Export Plug-In . SVG Version: 6.00 Build 0)  -->
<svg version="1.1" id="Слой_1" xmlns="http://www.w3.org/2000/svg" xmlns:xlink="http://www.w3.org/1999/xlink" x="0px" y="0px"
	 viewBox="0 0 400 400" style="enable-background:new 0 0 400 400;" xml:space="preserve">
<style type="text/css">
	.st0{fill:#8600D3;stroke:#8600D3;stroke-width:1.5;stroke-miterlimit:10;}
	.st1{fill:#8600D3;}
	.st2{fill:#FFFFFF;}
</style>
<circle class="st0" cx="200" cy="200" r="200"/>
<g>
	<g>
		<path class="st1" d="M178.2,224.2c17.3-13.7,34.7-27.3,52-41c6.1-4.8-2.5-13.2-8.5-8.5c-17.3,13.7-34.7,27.3-52,41
			C163.7,220.5,172.2,229,178.2,224.2L178.2,224.2z"/>
	</g>
</g>
<g>
	<g>
		<path class="st2" d="M288.5,127.5c-21,0-42,0-63,0c-33.3,0-66.6,0-99.9,0c-7.7,0-15.4,0-23.1,0c-3.2,0-6,2.7-6,6
			c0,45.8,0,91.7,0,137.5c0,6.5,0,13,0,19.5c0,3.2,2.7,6,6,6c21,0,42,0,63,0c33.3,0,66.6,0,99.9,0c7.7,0,15.4,0,23.1,0
			c3.2,0,6-2.7,6-6c0-45.8,0-91.7,0-137.5c0-6.5,0-13,0-19.5c0-7.7-12-7.7-12,0c0,45.8,0,91.7,0,137.5c0,6.5,0,13,0,19.5
			c2-2,4-4,6-6c-21,0-42,0-63,0c-33.3,0-66.6,0-99.9,0c-7.7,0-15.4,0-23.1,0c2,2,4,4,6,6c0-45.8,0-91.7,0-137.5c0-6.5,0-13,0-19.5
			c-2,2-4,4-6,6c21,0,42,0,63,0c33.3,0,66.6,0,99.9,0c7.7,0,15.4,0,23.1,0C296.2,139.5,296.2,127.5,288.5,127.5z"/>
	</g>
</g>
<rect x="103" y="136.5" class="st2" width="183" height="29.5"/>
<g>
	<g>
		<path class="st1" d="M119.5,152c11.6,0,11.6-18,0-18C107.9,134,107.9,152,119.5,152L119.5,152z"/>
	</g>
</g>
<g>
	<g>
		<path class="st1" d="M146,152c11.6,0,11.6-18,0-18C134.4,134,134.4,152,146,152L146,152z"/>
	</g>
</g>
<g>
	<g>
		<path class="st1" d="M173,152c11.6,0,11.6-18,0-18C161.4,134,161.4,152,173,152L173,152z"/>
	</g>
</g>
</svg>
