<?xml version="1.0" encoding="utf-8"?>
<!-- Generator: Adobe Illustrator 22.1.0, SVG Export Plug-In . SVG Version: 6.00 Build 0)  -->
<svg version="1.1" id="Слой_1" xmlns="http://www.w3.org/2000/svg" xmlns:xlink="http://www.w3.org/1999/xlink" x="0px" y="0px"
	 viewBox="0 0 400 400" style="enable-background:new 0 0 400 400;" xml:space="preserve">
<style type="text/css">
	.st0{fill:#8600D3;}
	.st1{fill:#FFFFFF;}
</style>
<circle class="st0" cx="200" cy="199" r="200"/>
<g>
	<g>
		<line class="st1" x1="104.4" y1="138.1" x2="121.2" y2="138.6"/>
		<g>
			<path class="st1" d="M104.4,144.1c5.6,0.2,11.2,0.3,16.8,0.5c7.7,0.2,7.7-11.8,0-12c-5.6-0.2-11.2-0.3-16.8-0.5
				C96.7,131.9,96.7,143.9,104.4,144.1L104.4,144.1z"/>
		</g>
	</g>
	<g>
		<g>
			<path class="st1" d="M171.4,232.6c-13.1-28.3-26.3-56.6-39.4-84.9c-1.9-4-3.7-8-5.6-12.1c-3.2-7-13.6-0.9-10.4,6.1
				c13.1,28.3,26.3,56.6,39.4,84.9c1.9,4,3.7,8,5.6,12.1C164.3,245.6,174.6,239.5,171.4,232.6L171.4,232.6z"/>
		</g>
	</g>
	<g>
		<line class="st1" x1="165.7" y1="236.6" x2="267.7" y2="236.6"/>
		<g>
			<path class="st1" d="M165.7,242.6c29.7,0,59.4,0,89.1,0c4.3,0,8.6,0,12.9,0c7.7,0,7.7-12,0-12c-29.7,0-59.4,0-89.1,0
				c-4.3,0-8.6,0-12.9,0C158,230.6,158,242.6,165.7,242.6L165.7,242.6z"/>
		</g>
	</g>
	<g>
		<g>
			<path class="st1" d="M273,238.2c9-25,18-50,27-75c2.6-7.3-9-10.4-11.6-3.2c-9,25-18,50-27,75C258.8,242.3,270.4,245.4,273,238.2
				L273,238.2z"/>
		</g>
	</g>
	<g>
		<g>
			<path class="st1" d="M294.2,155.6c-46.7,0-93.4,0-140,0c-6.7,0-13.3,0-20,0c-7.7,0-7.7,12,0,12c46.7,0,93.4,0,140,0
				c6.7,0,13.3,0,20,0C301.9,167.6,301.9,155.6,294.2,155.6L294.2,155.6z"/>
		</g>
	</g>
	<g>
		<g>
			<path class="st1" d="M160,236.6c3,6.3,6,12.7,9,19c3.3,7,13.7,0.9,10.4-6.1c-3-6.3-6-12.7-9-19
				C167.1,223.6,156.7,229.7,160,236.6L160,236.6z"/>
		</g>
	</g>
	<g>
		<g>
			<path class="st1" d="M276.7,251.6c-37.9,0-75.9,0-113.8,0c-5.4,0-10.8,0-16.2,0c-7.7,0-7.7,12,0,12c37.9,0,75.9,0,113.8,0
				c5.4,0,10.8,0,16.2,0C284.4,263.6,284.4,251.6,276.7,251.6L276.7,251.6z"/>
		</g>
	</g>
	<g>
		<g>
			<path class="st1" d="M140,273.8c15.4,0,15.5-24,0-24C124.6,249.8,124.6,273.8,140,273.8L140,273.8z"/>
		</g>
	</g>
	<g>
		<g>
			<path class="st1" d="M282.4,273.8c15.4,0,15.5-24,0-24C266.9,249.8,266.9,273.8,282.4,273.8L282.4,273.8z"/>
		</g>
	</g>
</g>
</svg>
