<?xml version="1.0" encoding="utf-8"?>
<!-- Generator: Adobe Illustrator 22.1.0, SVG Export Plug-In . SVG Version: 6.00 Build 0)  -->
<svg version="1.1" id="Слой_1" xmlns="http://www.w3.org/2000/svg" xmlns:xlink="http://www.w3.org/1999/xlink" x="0px" y="0px"
	 viewBox="0 0 400 400" style="enable-background:new 0 0 400 400;" xml:space="preserve">
<style type="text/css">
	.st0{fill:#8600D3;}
	.st1{fill:#FFFFFF;}
</style>
<circle class="st0" cx="200" cy="200" r="200"/>
<polygon class="st1" points="275,156 275,100 301.5,127.7 "/>
<polygon class="st1" points="125,242.8 125,298.8 98.5,271.1 "/>
<g>
	<g>
		<path class="st1" d="M199.5,265c-27.8,0-55.7,0-83.5,0c-7.7,0-7.7,12,0,12c27.8,0,55.7,0,83.5,0C207.2,277,207.2,265,199.5,265
			L199.5,265z"/>
	</g>
</g>
<g>
	<g>
		<path class="st1" d="M283.5,121.5c-28,0-56,0-84,0c-7.7,0-7.7,12,0,12c28,0,56,0,84,0C291.2,133.5,291.2,121.5,283.5,121.5
			L283.5,121.5z"/>
	</g>
</g>
<g>
	<g>
		<path class="st1" d="M205.5,270.5c0-41.8,0-83.7,0-125.5c0-5.8,0-11.7,0-17.5c0-7.7-12-7.7-12,0c0,41.8,0,83.7,0,125.5
			c0,5.8,0,11.7,0,17.5C193.5,278.2,205.5,278.2,205.5,270.5L205.5,270.5z"/>
	</g>
</g>
<g>
	<g>
		<path class="st0" d="M178.2,224.2c17.3-13.7,34.7-27.3,52-41c6.1-4.8-2.5-13.2-8.5-8.5c-17.3,13.7-34.7,27.3-52,41
			C163.7,220.5,172.2,229,178.2,224.2L178.2,224.2z"/>
	</g>
</g>
</svg>
