<?xml version="1.0" encoding="utf-8"?>
<!-- Generator: Adobe Illustrator 22.1.0, SVG Export Plug-In . SVG Version: 6.00 Build 0)  -->
<svg version="1.1" id="Слой_1" xmlns="http://www.w3.org/2000/svg" xmlns:xlink="http://www.w3.org/1999/xlink" x="0px" y="0px"
	 viewBox="0 0 400 400" style="enable-background:new 0 0 400 400;" xml:space="preserve">
<style type="text/css">
	.st0{fill:#4D4D4D;}
	.st1{fill:none;stroke:#FFFFFF;stroke-width:38;stroke-miterlimit:10;}
	.st2{fill:none;stroke:#FFFFFF;stroke-width:35;stroke-miterlimit:10;}
	.st3{fill:#FFFFFF;}
</style>
<rect x="0.8" y="1" class="st0" width="399" height="399"/>
<path class="st1" d="M200.3,52c79.5,0,144,64.5,144,144s-64.5,144-144,144s-144-64.5-144-144S120.7,52,200.3,52"/>
<polygon class="st0" points="197.1,248.7 126,123.9 54.8,-0.8 198.4,0 342,0.7 269.6,124.7 "/>
<line class="st2" x1="108.6" y1="82.6" x2="31.4" y2="78.4"/>
<line class="st2" x1="111.1" y1="165.1" x2="116.9" y2="87.9"/>
<rect x="107.9" y="65.9" transform="matrix(0.9976 6.982904e-02 -6.982904e-02 0.9976 5.6984 -8.2936)" class="st3" width="27.1" height="23"/>
<rect x="-5" y="-16" class="st0" width="415" height="32"/>
</svg>
