<?xml version="1.0" encoding="utf-8"?>
<!-- Generator: Adobe Illustrator 22.1.0, SVG Export Plug-In . SVG Version: 6.00 Build 0)  -->
<svg version="1.1" id="Слой_1" xmlns="http://www.w3.org/2000/svg" xmlns:xlink="http://www.w3.org/1999/xlink" x="0px" y="0px"
	 viewBox="0 0 400 200" style="enable-background:new 0 0 400 200;" xml:space="preserve">
<style type="text/css">
	.st0{fill:#EDBD70;}
	.st1{fill:#F7A71E;}
</style>
<g>
	<g>
		<path class="st0" d="M7,69.5c69.9,0,139.7,0,209.6,0c20,0,39.9,0,59.9,0c3.9,0,3.9-6,0-6c-69.9,0-139.7,0-209.6,0
			c-20,0-39.9,0-59.9,0C3.1,63.5,3.1,69.5,7,69.5L7,69.5z"/>
	</g>
</g>
<g>
	<g>
		<path class="st1" d="M129,136.5c68.5,0,137,0,205.5,0c19.5,0,39,0,58.6,0c3.9,0,3.9-6,0-6c-68.5,0-137,0-205.5,0
			c-19.5,0-39,0-58.6,0C125.1,130.5,125.1,136.5,129,136.5L129,136.5z"/>
	</g>
</g>
</svg>
